<svg xmlns="http://www.w3.org/2000/svg" viewBox="0 0 512 512">
  <defs>
    <linearGradient id="g" x1="0" x2="1" y1="0" y2="1"><stop stop-color="#8b0d24"/><stop offset="1" stop-color="#4d0713"/></linearGradient>
    <filter id="s" x="-20%" y="-20%" width="140%" height="140%"><feDropShadow dx="0" dy="16" stdDeviation="18" flood-color="#4d0713" flood-opacity=".25"/></filter>
  </defs>
  <circle cx="256" cy="256" r="226" fill="url(#g)" filter="url(#s)"/>
  <circle cx="256" cy="256" r="190" fill="none" stroke="#f7c948" stroke-width="12"/>
  <path d="M146 164h220v152c0 52-46 91-110 111-64-20-110-59-110-111V164z" fill="#fff7f8"/>
  <path d="M180 205h152v38H180zm0 61h152v27H180zm0 46h94v27h-94z" fill="#7a1022"/>
  <path d="M132 142l124-58 124 58-124 58-124-58z" fill="#f7c948"/>
  <path d="M256 200v83" stroke="#f7c948" stroke-width="18" stroke-linecap="round"/>
  <text x="256" y="374" text-anchor="middle" font-family="Poppins, Arial, sans-serif" font-size="66" font-weight="900" fill="#7a1022">NI</text>
</svg>